<?xml version="1.0" standalone="no"?>
<!DOCTYPE svg PUBLIC "-//W3C//DTD SVG 20010904//EN"
 "http://www.w3.org/TR/2001/REC-SVG-20010904/DTD/svg10.dtd">
<svg version="1.0" xmlns="http://www.w3.org/2000/svg"
 width="700.000000pt" height="700.000000pt" viewBox="0 0 700.000000 700.000000"
 preserveAspectRatio="xMidYMid meet">
<metadata>
Created by potrace 1.14, written by Peter Selinger 2001-2017
</metadata>
<g transform="translate(0.000000,700.000000) scale(0.100000,-0.100000)"
fill="#000000" stroke="none">
<path d="M4738 6295 c-1 -1 -41 -6 -88 -10 -47 -3 -134 -15 -195 -26 -663
-118 -1131 -451 -1230 -874 -19 -85 -17 -235 6 -325 10 -41 41 -120 69 -176
42 -83 57 -104 89 -122 51 -29 97 -28 177 4 112 46 188 132 243 279 12 33 46
179 55 235 3 19 8 46 11 60 3 14 7 34 9 45 40 198 139 416 246 539 105 122
239 212 386 260 142 46 344 62 529 42 375 -40 613 -191 718 -456 41 -103 51
-168 51 -325 1 -109 -6 -208 -17 -260 -3 -11 -8 -40 -12 -65 -34 -208 -225
-556 -364 -660 -67 -51 -181 -105 -250 -120 -79 -16 -331 -8 -481 16 -19 3
-36 6 -37 5 -11 -2 -117 36 -153 54 -93 48 -167 163 -209 325 l-19 75 -1 -530
0 -530 19 70 c67 256 158 347 385 385 95 16 355 20 425 6 14 -2 43 -7 65 -11
138 -23 501 -176 616 -261 308 -226 360 -619 124 -939 -95 -129 -252 -256
-420 -340 -200 -101 -368 -136 -630 -130 -88 2 -171 6 -185 9 -14 2 -47 7 -75
10 -98 11 -164 25 -291 60 -125 35 -227 58 -308 70 -21 4 -48 8 -60 11 -57 12
-255 28 -341 29 -100 0 -257 -16 -295 -30 -8 -3 -26 -8 -40 -11 -71 -13 -244
-103 -315 -163 -185 -156 -332 -365 -545 -775 -112 -216 -150 -287 -175 -325
-12 -19 -76 -123 -141 -229 -165 -271 -207 -309 -374 -344 -87 -18 -235 -15
-280 5 -19 9 -56 25 -81 36 -95 43 -419 279 -594 434 -16 14 -64 55 -106 90
-41 34 -140 117 -220 184 -243 204 -354 284 -394 284 l-35 0 19 -32 c37 -66
325 -554 346 -588 50 -78 237 -402 233 -405 -4 -4 -23 -7 -283 -46 -116 -17
-217 -33 -225 -34 -8 -2 -21 -4 -27 -4 -8 -1 -13 -14 -13 -31 l0 -31 862 3
863 3 70 26 c123 45 176 87 249 198 46 70 194 320 320 541 190 332 294 483
422 614 153 156 326 248 514 272 84 11 402 11 505 1 44 -5 96 -10 116 -12 20
-1 68 -8 105 -14 38 -6 85 -13 104 -15 19 -2 64 -7 100 -10 36 -4 79 -10 95
-13 17 -4 613 -8 1325 -10 l1295 -2 -55 20 c-30 11 -64 24 -75 29 -11 4 -49
19 -85 33 -36 14 -110 46 -165 72 -84 39 -107 55 -141 98 -79 99 -106 179 -99
297 5 85 6 94 36 205 12 44 32 118 45 165 27 100 27 249 -1 340 -82 269 -337
513 -721 691 -63 29 -114 55 -114 58 0 3 64 40 142 81 154 82 238 134 308 189
264 211 393 451 384 715 -12 361 -325 709 -789 881 -89 33 -217 71 -270 80
-11 2 -58 11 -105 19 -47 8 -105 18 -130 21 -47 7 -416 16 -422 10z"/>
<path d="M3972 1843 c-42 -21 -95 -83 -109 -127 -30 -99 27 -211 127 -252 148
-60 311 88 270 244 -15 54 -68 117 -117 138 -43 19 -130 17 -171 -3z"/>
<path d="M3285 1820 c-86 -20 -162 -81 -199 -160 -15 -33 -21 -64 -20 -120 0
-64 4 -83 29 -128 29 -54 71 -94 135 -128 48 -26 180 -26 230 0 144 76 202
229 141 372 -51 118 -194 193 -316 164z"/>
<path d="M2771 1216 c-76 -25 -129 -92 -138 -175 -16 -146 140 -266 278 -213
73 29 132 114 132 194 0 138 -139 237 -272 194z"/>
</g>
</svg>
