<svg width="382" height="514" viewBox="0 0 382 514" fill="none" xmlns="http://www.w3.org/2000/svg">
<path d="M342.738 474.471C339.232 478.102 335.456 481.46 331.444 484.517C318.139 494.6 302.033 500.702 286.336 505.88C266.414 512.45 246.115 516.373 224.978 512.411C220.618 511.593 216.047 511.996 211.612 511.513C198.233 510.058 185.423 506.121 172.959 501.309C158.303 495.712 144.254 488.626 131.032 480.16C118.743 472.249 106.804 464.012 96.0637 454.05C93.2037 451.401 90.0254 449.093 87.0788 446.524C81.5976 441.754 75.8368 437.229 70.8158 432.004C64.7433 425.721 59.0566 419.073 53.7872 412.096C45.5617 401.14 36.8181 390.367 30.1949 378.448C18.8076 357.865 11.1242 335.425 7.49803 312.16C6.11294 303.531 3.13897 295.135 2.10678 286.482C0.818063 274.983 0.115332 263.425 0.00126981 251.853C-0.0322513 244.944 0.597983 238.048 1.88329 231.26C2.73473 226.569 4.01983 222.013 4.85898 217.278C6.92968 205.509 9.22191 193.666 13.6785 182.521C16.3763 175.74 20.5928 169.771 24.0519 163.395C27.5857 156.95 29.3126 149.843 32.5194 143.202C36.1744 135.644 40.1799 128.242 43.3448 120.453C46.5098 112.664 48.3082 104.213 51.3452 96.3054C53.5599 90.5338 55.9784 84.4893 59.7854 79.7758C65.0051 73.3039 71.3429 67.6432 77.7147 62.2452C85.784 55.4251 93.9802 48.5959 102.853 42.9247C111.604 37.3382 121.251 33.0632 130.584 28.3764C137.71 24.7974 144.86 21.2262 152.212 18.1156C157.323 15.9616 162.717 14.4508 168.068 12.9524C180.348 9.52303 184.58 10.6415 190.313 21.0821C196.671 32.6692 206.678 40.4849 215.27 49.7721C218.539 53.2987 222.61 56.0768 226.244 59.2693C234.149 66.2187 242.081 73.14 249.872 80.222C254.335 84.2881 258.496 88.6878 262.849 92.8744C263.97 93.9806 265.413 94.7491 266.553 95.8352C270.926 100.026 275.123 104.405 279.598 108.475C286.177 114.448 292.94 120.215 299.629 126.059C300.185 126.545 300.835 126.926 301.41 127.399C306.813 131.815 312.436 135.999 317.532 140.745C321.604 144.544 324.89 149.17 328.77 153.19C338.451 163.221 344.996 175.205 349.644 188.146C353.443 198.739 355.992 209.766 359.063 220.613C360.837 226.874 362.565 233.15 364.247 239.442C364.879 241.812 365.154 244.289 365.873 246.626C368.112 253.989 370.874 261.235 372.736 268.7C374.599 276.166 375.655 283.893 377.039 291.487C378.423 299.08 380.44 306.452 381.133 314.028C381.853 321.962 381.25 329.995 381.395 337.994C381.53 347.404 382.283 356.832 381.885 366.215C381.469 375.442 380.454 384.632 378.846 393.727C377.675 400.473 379.538 407.457 376.117 414.1C373.148 419.862 371.674 426.357 369.307 432.437C368.764 433.797 367.849 434.877 367.455 436.527C366.697 439.659 364.889 442.561 363.356 445.48C357.827 456.001 351.003 465.947 342.738 474.471Z" fill="black"/>
<path d="M308.014 27.8905C322.1 40.7285 333.88 56.5286 343.163 72.3309C352.878 88.8669 358.515 108.182 363.592 126.58C365.449 133.304 367.032 140.115 368.536 146.925C369.85 152.901 371.22 158.9 371.96 164.956C372.559 169.973 372.168 175.135 372.459 180.219C372.716 184.661 373.441 189.091 373.655 193.53C373.712 194.637 372.737 196.575 371.93 196.758C370.769 197.019 368.741 196.423 368.106 195.496C364.657 190.44 361.603 185.126 358.257 179.998C354.618 174.454 350.79 169.03 347.032 163.559C345.561 161.42 344.252 159.163 342.533 157.205C339.859 154.148 336.958 151.275 334.088 148.395C323.485 137.754 310.4 130.07 298.657 120.635C276.857 103.13 256.338 83.2938 237.159 62.9553C227.259 52.456 217.212 42.3327 209.55 30.0596C205.49 23.5703 206.394 8.97311 213.884 5.40684C215.249 4.81836 216.669 4.36648 218.122 4.05779C233.304 0.307688 247.29 -1.84931 262.655 2.12008C279.698 6.50509 294.86 15.9014 308.014 27.8905Z" fill="black"/>
<path d="M57.9185 35.2912C61.5704 30.9937 65.3857 26.7704 69.1774 22.5872C75.4053 15.7037 81.7405 9.29765 89.4831 4.13071C95.8334 -0.103087 106.358 1.16682 111.225 6.90352C112.255 8.1261 112.24 10.8527 111.763 12.6348C107.508 28.617 91.0666 41.1996 79.2313 51.533C72.7191 57.2032 65.7261 62.3436 59.4301 68.2431C52.0874 75.1245 45.3093 82.6028 38.2189 89.7571C35.0493 92.9502 31.7435 96.9018 26.8359 96.9095C26.5064 96.947 26.1746 96.8636 25.9015 96.6747C25.6628 96.4162 25.5283 96.0778 25.5241 95.7253C24.7064 88.9043 29.7539 82.697 32.3085 76.7788C35.4736 69.4561 38.8057 62.1718 43.007 55.3821C47.4613 48.3136 52.4463 41.5971 57.9185 35.2912Z" fill="black"/>
</svg>
