<svg width="17" height="14" viewBox="0 0 17 14" fill="none" xmlns="http://www.w3.org/2000/svg">
<path d="M5.52 0V0.660002C4.2 1.26 3.16 2.18 2.4 3.42C1.64 4.62 1.26 5.92 1.26 7.32C1.26 8.48 1.66 9.06 2.46 9.06C2.54 9.06 2.84 9 3.36 8.88C3.88 8.72 4.24 8.64 4.44 8.64C5.04 8.64 5.52 8.84 5.88 9.24C6.28 9.64 6.48 10.14 6.48 10.74C6.48 11.38 6.24 11.94 5.76 12.42C5.28 12.86 4.68 13.08 3.96 13.08C2.84 13.08 1.9 12.66 1.14 11.82C0.38 10.94 0 9.82 0 8.46C0 6.58 0.48 4.86 1.44 3.3C2.44 1.7 3.8 0.600002 5.52 0Z" fill="black"/>
<path d="M15.52 0V0.660002C14.2 1.26 13.16 2.18 12.4 3.42C11.64 4.62 11.26 5.92 11.26 7.32C11.26 8.48 11.66 9.06 12.46 9.06C12.54 9.06 12.84 9 13.36 8.88C13.88 8.72 14.24 8.64 14.44 8.64C15.04 8.64 15.52 8.84 15.88 9.24C16.28 9.64 16.48 10.14 16.48 10.74C16.48 11.38 16.24 11.94 15.76 12.42C15.28 12.86 14.68 13.08 13.96 13.08C12.84 13.08 11.9 12.66 11.14 11.82C10.38 10.94 10 9.82 10 8.46C10 6.58 10.48 4.86 11.44 3.3C12.44 1.7 13.8 0.600002 15.52 0Z" fill="black"/>
</svg>
